<svg xmlns="http://www.w3.org/2000/svg" width="339.3824462890625" height="340.6236572265625" viewBox="-296.09674072265625 -176.61135864257812 339.3824462890625 340.6236572265625"><title>Neo4j Graph Visualization</title><desc>Created using Neo4j (http://www.neo4j.com/)</desc><g class="layer relationships"><g class="relationship" transform="translate(-67.64597780026399 132.47767634064175) rotate(243.5710920576621)"><path class="outline" fill="#A5ABB6" stroke="none" d="M 25 0.5 L 53.171570634744626 0.5 L 53.171570634744626 -0.5 L 25 -0.5 Z M 88.94500813474463 0.5 L 117.11657876948925 0.5 L 117.11657876948925 3.5 L 124.11657876948925 0 L 117.11657876948925 -3.5 L 117.11657876948925 -0.5 L 88.94500813474463 -0.5 Z"/><text text-anchor="middle" pointer-events="none" font-size="8px" fill="#000000" x="71.05828938474463" y="3" transform="rotate(180 71.05828938474463 0)" font-family="sans-serif">WROTE</text></g><g class="relationship" transform="translate(3.614472132311223 62.77079014962108) rotate(204.8791915623009)"><path class="outline" fill="#A5ABB6" stroke="none" d="M 25 0.5 L 49.573458367111655 0.5 L 49.573458367111655 -0.5 L 25 -0.5 Z M 95.13595836711166 0.5 L 119.70941673422331 0.5 L 119.70941673422331 3.5 L 126.70941673422331 0 L 119.70941673422331 -3.5 L 119.70941673422331 -0.5 L 95.13595836711166 -0.5 Z"/><text text-anchor="middle" pointer-events="none" font-size="8px" fill="#000000" x="72.35470836711166" y="3" transform="rotate(180 72.35470836711166 0)" font-family="sans-serif">ACTED_IN</text></g><g class="relationship" transform="translate(14.28569354272826 -36.303445294286604) rotate(526.6297230851992)"><path class="outline" fill="#A5ABB6" stroke="none" d="M 25 0.5 L 49.93528965515327 0.5 L 49.93528965515327 -0.5 L 25 -0.5 Z M 95.49778965515327 0.5 L 120.43307931030654 0.5 L 120.43307931030654 3.5 L 127.43307931030654 0 L 120.43307931030654 -3.5 L 120.43307931030654 -0.5 L 95.49778965515327 -0.5 Z"/><text text-anchor="middle" pointer-events="none" font-size="8px" fill="#000000" x="72.71653965515327" y="3" transform="rotate(180 72.71653965515327 0)" font-family="sans-serif">ACTED_IN</text></g><g class="relationship" transform="translate(-41.41070344649457 -119.0100862802533) rotate(488.13487721782275)"><path class="outline" fill="#A5ABB6" stroke="none" d="M 25 0.5 L 48.70086681779719 0.5 L 48.70086681779719 -0.5 L 25 -0.5 Z M 94.26336681779719 0.5 L 117.96423363559438 0.5 L 117.96423363559438 3.5 L 124.96423363559438 0 L 117.96423363559438 -3.5 L 117.96423363559438 -0.5 L 94.26336681779719 -0.5 Z"/><text text-anchor="middle" pointer-events="none" font-size="8px" fill="#000000" x="71.48211681779719" y="3" transform="rotate(180 71.48211681779719 0)" font-family="sans-serif">ACTED_IN</text></g><g class="relationship" transform="translate(-139.16737812729332 -147.61134643492954) rotate(447.9868572180843)"><path class="outline" fill="#A5ABB6" stroke="none" d="M 25 0.5 L 47.04251511865006 0.5 L 47.04251511865006 -0.5 L 25 -0.5 Z M 92.60501511865006 0.5 L 114.64753023730012 0.5 L 114.64753023730012 3.5 L 121.64753023730012 0 L 114.64753023730012 -3.5 L 114.64753023730012 -0.5 L 92.60501511865006 -0.5 Z"/><text text-anchor="middle" pointer-events="none" font-size="8px" fill="#000000" x="69.82376511865006" y="3" font-family="sans-serif">ACTED_IN</text></g><g class="relationship" transform="translate(-267.0967440981554 -53.712223929553815) rotate(381.5878793283208)"><path class="outline" fill="#A5ABB6" stroke="none" d="M 25 0.5 L 44.61477132295887 0.5 L 44.61477132295887 -0.5 L 25 -0.5 Z M 91.50539632295887 0.5 L 111.12016764591775 0.5 L 111.12016764591775 3.5 L 118.12016764591775 0 L 111.12016764591775 -3.5 L 111.12016764591775 -0.5 L 91.50539632295887 -0.5 Z"/><text text-anchor="middle" pointer-events="none" font-size="8px" fill="#000000" x="68.06008382295887" y="3" font-family="sans-serif">DIRECTED</text></g><g class="relationship" transform="translate(-185.46392114281142 135.01231476889885) rotate(290.7120799644245)"><path class="outline" fill="#A5ABB6" stroke="none" d="M 25 0.5 L 51.34744923106656 0.5 L 51.34744923106656 -0.5 L 25 -0.5 Z M 87.12088673106656 0.5 L 113.46833596213312 0.5 L 113.46833596213312 3.5 L 120.46833596213312 0 L 113.46833596213312 -3.5 L 113.46833596213312 -0.5 L 87.12088673106656 -0.5 Z"/><text text-anchor="middle" pointer-events="none" font-size="8px" fill="#000000" x="69.23416798106656" y="3" font-family="sans-serif">WROTE</text></g></g><g class="layer nodes"><g class="node" aria-label="graph-node177" transform="translate(-67.64597780026399,132.47767634064175)"><circle class="outline" cx="0" cy="0" r="25" fill="#C990C0" stroke="#b261a5" stroke-width="2px"/><text class="caption" text-anchor="middle" pointer-events="none" x="0" y="5" font-size="10px" fill="#FFFFFF" font-family="sans-serif"> Christop…</text></g><g class="node" aria-label="graph-node171" transform="translate(-134.01583503915393,-1.0543277408018383)"><circle class="outline" cx="0" cy="0" r="25" fill="#F79767" stroke="#f36924" stroke-width="2px"/><text class="caption" text-anchor="middle" pointer-events="none" x="0" y="-5" font-size="10px" fill="#FFFFFF" font-family="sans-serif"> Captain</text><text class="caption" text-anchor="middle" pointer-events="none" x="0" y="5" font-size="10px" fill="#FFFFFF" font-family="sans-serif"> America:</text><text class="caption" text-anchor="middle" pointer-events="none" x="0" y="15" font-size="10px" fill="#FFFFFF" font-family="sans-serif"> Th</text></g><g class="node" aria-label="graph-node174" transform="translate(3.614472132311223,62.77079014962108)"><circle class="outline" cx="0" cy="0" r="25" fill="#C990C0" stroke="#b261a5" stroke-width="2px"/><text class="caption" text-anchor="middle" pointer-events="none" x="0" y="0" font-size="10px" fill="#FFFFFF" font-family="sans-serif"> Samuel L.</text><text class="caption" text-anchor="middle" pointer-events="none" x="0" y="10" font-size="10px" fill="#FFFFFF" font-family="sans-serif"> Jackson</text></g><g class="node" aria-label="graph-node175" transform="translate(14.28569354272826,-36.303445294286604)"><circle class="outline" cx="0" cy="0" r="25" fill="#C990C0" stroke="#b261a5" stroke-width="2px"/><text class="caption" text-anchor="middle" pointer-events="none" x="0" y="0" font-size="10px" fill="#FFFFFF" font-family="sans-serif"> Hayley</text><text class="caption" text-anchor="middle" pointer-events="none" x="0" y="10" font-size="10px" fill="#FFFFFF" font-family="sans-serif"> Atwell</text></g><g class="node" aria-label="graph-node173" transform="translate(-41.41070344649457,-119.0100862802533)"><circle class="outline" cx="0" cy="0" r="25" fill="#C990C0" stroke="#b261a5" stroke-width="2px"/><text class="caption" text-anchor="middle" pointer-events="none" x="0" y="0" font-size="10px" fill="#FFFFFF" font-family="sans-serif"> Chris</text><text class="caption" text-anchor="middle" pointer-events="none" x="0" y="10" font-size="10px" fill="#FFFFFF" font-family="sans-serif"> Evans</text></g><g class="node" aria-label="graph-node172" transform="translate(-139.16737812729332,-147.61134643492954)"><circle class="outline" cx="0" cy="0" r="25" fill="#C990C0" stroke="#b261a5" stroke-width="2px"/><text class="caption" text-anchor="middle" pointer-events="none" x="0" y="0" font-size="10px" fill="#FFFFFF" font-family="sans-serif"> Hugo</text><text class="caption" text-anchor="middle" pointer-events="none" x="0" y="10" font-size="10px" fill="#FFFFFF" font-family="sans-serif"> Weavi…</text></g><g class="node" aria-label="graph-node176" transform="translate(-267.0967440981554,-53.712223929553815)"><circle class="outline" cx="0" cy="0" r="25" fill="#C990C0" stroke="#b261a5" stroke-width="2px"/><text class="caption" text-anchor="middle" pointer-events="none" x="0" y="0" font-size="10px" fill="#FFFFFF" font-family="sans-serif"> Joe</text><text class="caption" text-anchor="middle" pointer-events="none" x="0" y="10" font-size="10px" fill="#FFFFFF" font-family="sans-serif"> Johnst…</text></g><g class="node" aria-label="graph-node178" transform="translate(-185.46392114281142,135.01231476889885)"><circle class="outline" cx="0" cy="0" r="25" fill="#C990C0" stroke="#b261a5" stroke-width="2px"/><text class="caption" text-anchor="middle" pointer-events="none" x="0" y="0" font-size="10px" fill="#FFFFFF" font-family="sans-serif"> Stephen</text><text class="caption" text-anchor="middle" pointer-events="none" x="0" y="10" font-size="10px" fill="#FFFFFF" font-family="sans-serif"> McFe…</text></g></g></svg>