<svg xmlns="http://www.w3.org/2000/svg" width="562.076416015625" height="365.37652587890625" viewBox="-255.9475555419922 -260.50494384765625 562.076416015625 365.37652587890625"><title>Neo4j Graph Visualization</title><desc>Created using Neo4j (http://www.neo4j.com/)</desc><g class="layer relationships"><g class="relationship" transform="translate(11.591357824944522 -16.68522542008523) rotate(392.6739458263204)"><path class="outline" fill="#A5ABB6" stroke="none" d="M 24.018736134675446,-6.953439040707552 L 24.277555179777966,-5.987513214418485 A 166.82651185009215 166.82651185009215 0 0 1 54.40523548295609,-11.160772005771776 L 54.32700931826007,-12.157707644194318 A 167.82651185009215 167.82651185009215 0 0 0 24.018736134675446,-6.953439040707552 Z M 76.38685500606877,-12.434163259441902 L 76.33363682717078,-11.435580350798489 A 166.82651185009215 166.82651185009215 0 0 1 106.58149830035846,-7.018952307633803 L 105.87790393411804,-4.102626714049517 L 113.50352374642853,-5.863286385336865 L 107.51962412201236,-10.907386432412851 L 106.81602975577194,-7.991060838828565 A 167.82651185009215 167.82651185009215 0 0 0 76.38685500606877,-12.434163259441902"/><text text-anchor="middle" pointer-events="none" font-size="8px" fill="#000000" x="65.35865011775334" y="-9.1588507514181" font-family="sans-serif">road</text></g><g class="relationship" transform="translate(127.59063415389105 57.710519448212395) rotate(347.76185723810204)"><path class="outline" fill="#A5ABB6" stroke="none" d="M 21.40063509461097,-12.933012701892217 L 21.90063509461097,-12.06698729810778 A 106.60661006677064 106.60661006677064 0 0 1 49.97640262085517,-23.321623717979847 L 49.73976122037033,-24.293220778276236 A 107.60661006677064 107.60661006677064 0 0 0 21.40063509461097,-12.933012701892217 Z M 96.04510802230055,-25.3120233963745 L 95.8514287689408,-24.33095849188652 A 106.60661006677064 106.60661006677064 0 0 1 124.3950332623226,-14.322052175179717 L 123.01075437651477,-11.66051653455669 L 130.83599623807766,-11.535657381731948 L 126.24073844339972,-17.870766362677088 L 124.85645955759189,-15.209230722054059 A 107.60661006677064 107.60661006677064 0 0 0 96.04510802230055,-25.3120233963745"/><text text-anchor="middle" pointer-events="none" font-size="8px" fill="#000000" x="72.84796829525338" y="-23.823650119311694" font-family="sans-serif">twowheeler</text></g><g class="relationship" transform="translate(277.1288170102831 25.27500127048691) rotate(205.91520734455457)"><path class="outline" fill="#A5ABB6" stroke="none" d="M 21.40063509461097,12.933012701892217 L 21.90063509461097,12.06698729810778 A 103.41320639518322 103.41320639518322 0 0 0 48.42177510130967,22.80799356535958 L 48.178233061865996,23.777883907111487 A 104.41320639518322 104.41320639518322 0 0 1 21.40063509461097,12.933012701892217 Z M 94.46700478272786,24.8168213363668 L 94.26722386218438,23.836980745358858 A 103.41320639518322 103.41320639518322 0 0 0 121.2435709894773,14.296709336438997 L 119.86164886295788,11.633949257829583 L 127.68699819398584,11.516017720995233 L 123.08613382483654,17.84705610791822 L 121.70421169831711,15.184296029308804 A 104.41320639518322 104.41320639518322 0 0 1 94.46700478272786,24.8168213363668"/><text text-anchor="middle" pointer-events="none" font-size="8px" fill="#000000" x="71.27552516298363" y="29.395565866297105" transform="rotate(180 71.27552516298363 26.395565866297105)" font-family="sans-serif">twowheeler</text></g><g class="relationship" transform="translate(142.32347738547733 -40.22717636319994) rotate(505.23663548895576)"><path class="outline" fill="#A5ABB6" stroke="none" d="M 25 0.5 L 88.63938082550617 0.5 L 88.63938082550617 -0.5 L 25 -0.5 Z M 107.97531832550617 0.5 L 171.61469915101233 0.5 L 171.61469915101233 3.5 L 178.61469915101233 0 L 171.61469915101233 -3.5 L 171.61469915101233 -0.5 L 107.97531832550617 -0.5 Z"/><text text-anchor="middle" pointer-events="none" font-size="8px" fill="#000000" x="98.30734957550617" y="3" transform="rotate(180 98.30734957550617 0)" font-family="sans-serif">trek</text></g><g class="relationship" transform="translate(277.1288170102831 25.27500127048691) rotate(205.91520734455457)"><path class="outline" fill="#A5ABB6" stroke="none" d="M 25 0.5 L 60.43247338286548 0.5 L 60.43247338286548 -0.5 L 25 -0.5 Z M 82.44419213286548 0.5 L 117.87666551573096 0.5 L 117.87666551573096 3.5 L 124.87666551573096 0 L 117.87666551573096 -3.5 L 117.87666551573096 -0.5 L 82.44419213286548 -0.5 Z"/><text text-anchor="middle" pointer-events="none" font-size="8px" fill="#000000" x="71.43833275786548" y="3" transform="rotate(180 71.43833275786548 0)" font-family="sans-serif">road</text></g><g class="relationship" transform="translate(277.1288170102831 25.27500127048691) rotate(205.91520734455457)"><path class="outline" fill="#A5ABB6" stroke="none" d="M 21.40063509461097,-12.933012701892217 L 21.90063509461097,-12.06698729810778 A 103.41320639518322 103.41320639518322 0 0 1 61.691625478302775,-25.232957899369794 L 61.57640215983835,-26.226297512433746 A 104.41320639518322 104.41320639518322 0 0 0 21.40063509461097,-12.933012701892217 Z M 80.97247546857511,-26.66163648972497 L 80.9019361428456,-25.664127490504598 A 103.41320639518322 103.41320639518322 0 0 1 121.2435709894773,-14.296709336438997 L 119.86164886295788,-11.633949257829583 L 127.68699819398584,-11.516017720995233 L 123.08613382483654,-17.84705610791822 L 121.70421169831711,-15.184296029308804 A 104.41320639518322 104.41320639518322 0 0 0 80.97247546857511,-26.66163648972497"/><text text-anchor="middle" pointer-events="none" font-size="8px" fill="#000000" x="71.27552516298364" y="-23.395565866297105" transform="rotate(180 71.27552516298364 -26.395565866297105)" font-family="sans-serif">trek</text></g><g class="relationship" transform="translate(127.59063415389105 57.710519448212395) rotate(347.76185723810204)"><path class="outline" fill="#A5ABB6" stroke="none" d="M 25 0.5 L 62.00187057996813 0.5 L 62.00187057996813 -0.5 L 25 -0.5 Z M 84.01358932996813 0.5 L 121.01545990993625 0.5 L 121.01545990993625 3.5 L 128.01545990993625 0 L 121.01545990993625 -3.5 L 121.01545990993625 -0.5 L 84.01358932996813 -0.5 Z"/><text text-anchor="middle" pointer-events="none" font-size="8px" fill="#000000" x="73.00772995496813" y="3" font-family="sans-serif">road</text></g><g class="relationship" transform="translate(127.59063415389105 57.710519448212395) rotate(347.76185723810204)"><path class="outline" fill="#A5ABB6" stroke="none" d="M 21.40063509461097,12.933012701892217 L 21.90063509461097,12.06698729810778 A 106.60661006677064 106.60661006677064 0 0 0 63.26106411161108,25.678487157210313 L 63.14903657402307,26.672192259754297 A 107.60661006677064 107.60661006677064 0 0 1 21.40063509461097,12.933012701892217 Z M 82.5441759044741,27.098920922704735 L 82.47596229034832,26.1012501840099 A 106.60661006677064 106.60661006677064 0 0 0 124.3950332623226,14.322052175179717 L 123.01075437651477,11.66051653455669 L 130.83599623807766,11.535657381731948 L 126.24073844339972,17.870766362677088 L 124.85645955759189,15.209230722054059 A 107.60661006677064 107.60661006677064 0 0 1 82.5441759044741,27.098920922704735"/><text text-anchor="middle" pointer-events="none" font-size="8px" fill="#000000" x="72.84796829525341" y="29.823650119311694" font-family="sans-serif">trek</text></g><g class="relationship" transform="translate(11.591357824944522 -16.68522542008523) rotate(392.6739458263204)"><path class="outline" fill="#A5ABB6" stroke="none" d="M 24.018736134675446,6.953439040707552 L 24.277555179777966,5.987513214418485 A 166.82651185009215 166.82651185009215 0 0 0 55.7354437188737,11.259799884533209 L 55.66519115634179,12.257329120925675 A 167.82651185009215 167.82651185009215 0 0 1 24.018736134675446,6.953439040707552 Z M 75.04659689727463,12.500218328960074 L 75.00136469207065,11.501241828929949 A 166.82651185009215 166.82651185009215 0 0 0 106.58149830035846,7.018952307633803 L 105.87790393411804,4.102626714049517 L 113.50352374642853,5.863286385336865 L 107.51962412201236,10.907386432412851 L 106.81602975577194,7.991060838828565 A 167.82651185009215 167.82651185009215 0 0 1 75.04659689727463,12.500218328960074"/><text text-anchor="middle" pointer-events="none" font-size="8px" fill="#000000" x="65.35865011775341" y="15.1588507514181" font-family="sans-serif">trek</text></g><g class="relationship" transform="translate(11.591357824944522 -16.68522542008523) rotate(291.98375200032547)"><path class="outline" fill="#A5ABB6" stroke="none" d="M 21.40063509461097,12.933012701892217 L 21.90063509461097,12.06698729810778 A 91.12497766723958 91.12497766723958 0 0 0 55.66492745319318,23.508419312510114 L 55.535454757812985,24.500002300036115 A 92.12497766723958 92.12497766723958 0 0 1 21.40063509461097,12.933012701892217 Z M 74.93511421368672,24.971903651172283 L 74.85400710815834,23.97519825967848 A 91.12497766723958 91.12497766723958 0 0 0 109.13466722926309,14.188975971312736 L 107.76276423292313,11.521040033432394 L 115.58850158370721,11.432524969499578 L 110.96387122438301,17.74622388848653 L 109.59196822804306,15.078287950606185 A 92.12497766723958 92.12497766723958 0 0 1 74.93511421368672,24.971903651172283"/><text text-anchor="middle" pointer-events="none" font-size="8px" fill="#000000" x="65.2349835729339" y="27.748323370690912" font-family="sans-serif">trek</text></g><g class="relationship" transform="translate(63.18388623794591 -144.4855463879553) rotate(208.58656587184606)"><path class="outline" fill="#A5ABB6" stroke="none" d="M 24.018736134675446,-6.953439040707552 L 24.277555179777966,-5.987513214418485 A 253.2945552865675 253.2945552865675 0 0 1 64.2592180004146,-13.32378162823565 L 64.15824547031278,-14.318670842251379 A 254.2945552865675 254.2945552865675 0 0 0 24.018736134675446,-6.953439040707552 Z M 110.64749154499968,-14.765196571407927 L 110.56564755344102,-13.768551418384163 A 253.2945552865675 253.2945552865675 0 0 1 150.68084968895323,-7.201607397787692 L 149.9601965405498,-4.289450286693544 L 157.59599180624014,-6.005442903362018 L 151.64172055349113,-11.084483545913221 L 150.92106740508768,-8.172326434819073 A 254.2945552865675 254.2945552865675 0 0 0 110.64749154499968,-14.765196571407927"/><text text-anchor="middle" pointer-events="none" font-size="8px" fill="#000000" x="87.39744483560864" y="-12.106609845257225" transform="rotate(180 87.39744483560864 -15.106609845257225)" font-family="sans-serif">twowheeler</text></g><g class="relationship" transform="translate(-96.50998907313596 -231.50490600042065) rotate(451.1809518141908)"><path class="outline" fill="#A5ABB6" stroke="none" d="M 24.018736134675446,-6.953439040707552 L 24.277555179777966,-5.987513214418485 A 212.85049016184766 212.85049016184766 0 0 1 53.954395057539756,-11.7177064243904 L 53.835001765486695,-12.710553462867495 A 213.85049016184766 213.85049016184766 0 0 0 24.018736134675446,-6.953439040707552 Z M 100.31404658637516,-13.21187546951802 L 100.21609623434439,-12.216684167035396 A 212.85049016184766 212.85049016184766 0 0 1 130.00962897538105,-7.127937153998042 L 129.29585594422002,-4.214086083681096 L 136.92757697798078,-5.94810859300849 L 130.96132635026242,-11.013071914420637 L 130.2475533191014,-8.09922084410369 A 213.85049016184766 213.85049016184766 0 0 0 100.31404658637516,-13.21187546951802"/><text text-anchor="middle" pointer-events="none" font-size="8px" fill="#000000" x="77.06625570806231" y="-10.7278085585462" transform="rotate(180 77.06625570806231 -13.7278085585462)" font-family="sans-serif">twowheeler</text></g><g class="relationship" transform="translate(-99.83252649577862 -70.32947921791857) rotate(422.8786267165943)"><path class="outline" fill="#A5ABB6" stroke="none" d="M 24.018736134675446,6.953439040707552 L 24.277555179777966,5.987513214418485 A 218.83781824204013 218.83781824204013 0 0 0 55.47698592074036,11.96049927247887 L 55.36073560983375,12.953719220533742 A 219.83781824204013 219.83781824204013 0 0 1 24.018736134675446,6.953439040707552 Z M 101.84185980237572,13.446113255511165 L 101.74667640927164,12.450653501589784 A 218.83781824204013 218.83781824204013 0 0 0 133.06563999359102,7.139951004370531 L 132.35074496196887,4.226375006775488 L 139.9831331599165,5.957458596851334 L 134.01883336908725,11.024719001163923 L 133.3039383374651,8.111143003568879 A 219.83781824204013 219.83781824204013 0 0 1 101.84185980237572,13.446113255511165"/><text text-anchor="middle" pointer-events="none" font-size="8px" fill="#000000" x="78.5935432306165" y="16.931924980234413" font-family="sans-serif">twowheeler</text></g><g class="relationship" transform="translate(-99.83252649577862 -70.32947921791857) rotate(422.8786267165943)"><path class="outline" fill="#A5ABB6" stroke="none" d="M 24.018736134675446,-6.953439040707552 L 24.277555179777966,-5.987513214418485 A 218.83781824204013 218.83781824204013 0 0 1 68.95882558644253,-13.117268246697279 L 68.90418181033874,-14.115774159415452 A 219.83781824204013 219.83781824204013 0 0 0 24.018736134675446,-6.953439040707552 Z M 88.27683545855297,-14.320996801160305 L 88.24335675508007,-13.321557370072156 A 218.83781824204013 218.83781824204013 0 0 1 133.06563999359102,-7.139951004370531 L 132.35074496196887,-4.226375006775488 L 139.9831331599165,-5.957458596851334 L 134.01883336908725,-11.024719001163923 L 133.3039383374651,-8.111143003568879 A 219.83781824204013 219.83781824204013 0 0 0 88.27683545855297,-14.320996801160305"/><text text-anchor="middle" pointer-events="none" font-size="8px" fill="#000000" x="78.59354323061652" y="-10.931924980234413" font-family="sans-serif">trek</text></g><g class="relationship" transform="translate(-96.50998907313596 -231.50490600042065) rotate(451.1809518141908)"><path class="outline" fill="#A5ABB6" stroke="none" d="M 24.018736134675446,6.953439040707552 L 24.277555179777966,5.987513214418485 A 212.85049016184766 212.85049016184766 0 0 0 67.43255521953382,12.905356823907056 L 67.37648412209607,13.903783602410186 A 213.85049016184766 213.85049016184766 0 0 1 24.018736134675446,6.953439040707552 Z M 86.74997730696447,14.112745695256478 L 86.71545476970816,13.113341775701741 A 212.85049016184766 212.85049016184766 0 0 0 130.00962897538105,7.127937153998042 L 129.29585594422002,4.214086083681096 L 136.92757697798078,5.94810859300849 L 130.96132635026242,11.013071914420637 L 130.2475533191014,8.09922084410369 A 213.85049016184766 213.85049016184766 0 0 1 86.74997730696447,14.112745695256478"/><text text-anchor="middle" pointer-events="none" font-size="8px" fill="#000000" x="77.06625570806234" y="16.7278085585462" transform="rotate(180 77.06625570806234 13.7278085585462)" font-family="sans-serif">trek</text></g><g class="relationship" transform="translate(63.18388623794591 -144.4855463879553) rotate(208.58656587184606)"><path class="outline" fill="#A5ABB6" stroke="none" d="M 24.018736134675446,6.953439040707552 L 24.277555179777966,5.987513214418485 A 253.2945552865675 253.2945552865675 0 0 0 77.75786848800391,14.330231644677042 L 77.71018826208257,15.329094295923994 A 254.2945552865675 254.2945552865675 0 0 1 24.018736134675446,6.953439040707552 Z M 97.07864068755565,15.515126831879144 L 97.05015549025885,14.51553261744263 A 253.2945552865675 253.2945552865675 0 0 0 150.68084968895323,7.201607397787692 L 149.9601965405498,4.289450286693544 L 157.59599180624014,6.005442903362018 L 151.64172055349113,11.084483545913221 L 150.92106740508768,8.172326434819073 A 254.2945552865675 254.2945552865675 0 0 1 97.07864068755565,15.515126831879144"/><text text-anchor="middle" pointer-events="none" font-size="8px" fill="#000000" x="87.39744483560868" y="18.106609845257225" transform="rotate(180 87.39744483560868 15.106609845257225)" font-family="sans-serif">trek</text></g><g class="relationship" transform="translate(63.18388623794591 -144.4855463879553) rotate(412.7988908702394)"><path class="outline" fill="#A5ABB6" stroke="none" d="M 25 0.5 L 52.27835010602361 0.5 L 52.27835010602361 -0.5 L 25 -0.5 Z M 71.61428760602361 0.5 L 98.89263771204722 0.5 L 98.89263771204722 3.5 L 105.89263771204722 0 L 98.89263771204722 -3.5 L 98.89263771204722 -0.5 L 71.61428760602361 -0.5 Z"/><text text-anchor="middle" pointer-events="none" font-size="8px" fill="#000000" x="61.94631885602361" y="3" font-family="sans-serif">trek</text></g><g class="relationship" transform="translate(11.591357824944522 -16.68522542008523) rotate(291.98375200032547)"><path class="outline" fill="#A5ABB6" stroke="none" d="M 25 0.5 L 54.404791158021695 0.5 L 54.404791158021695 -0.5 L 25 -0.5 Z M 76.4165099080217 0.5 L 105.82130106604339 0.5 L 105.82130106604339 3.5 L 112.82130106604339 0 L 105.82130106604339 -3.5 L 105.82130106604339 -0.5 L 76.4165099080217 -0.5 Z"/><text text-anchor="middle" pointer-events="none" font-size="8px" fill="#000000" x="65.4106505330217" y="3" font-family="sans-serif">road</text></g><g class="relationship" transform="translate(11.591357824944522 -16.68522542008523) rotate(291.98375200032547)"><path class="outline" fill="#A5ABB6" stroke="none" d="M 21.40063509461097,-12.933012701892217 L 21.90063509461097,-12.06698729810778 A 91.12497766723958 91.12497766723958 0 0 1 35.2628959853315,-18.396596325986877 L 34.90953262912323,-19.332082476867384 A 92.12497766723958 92.12497766723958 0 0 0 21.40063509461097,-12.933012701892217 Z M 95.78791443571065,-20.81296365907872 L 95.48045394861245,-19.86140281032897 A 91.12497766723958 91.12497766723958 0 0 1 109.13466722926309,-14.188975971312736 L 107.76276423292313,-11.521040033432394 L 115.58850158370721,-11.432524969499578 L 110.96387122438301,-17.74622388848653 L 109.59196822804306,-15.078287950606185 A 92.12497766723958 92.12497766723958 0 0 0 95.78791443571065,-20.81296365907872"/><text text-anchor="middle" pointer-events="none" font-size="8px" fill="#000000" x="65.23498357293391" y="-21.748323370690912" font-family="sans-serif">PublicTransport</text></g><g class="relationship" transform="translate(63.18388623794591 -144.4855463879553) rotate(432.33144450842815)"><path class="outline" fill="#A5ABB6" stroke="none" d="M 25 0.5 L 92.93513937687341 0.5 L 92.93513937687341 -0.5 L 25 -0.5 Z M 112.27107687687341 0.5 L 180.20621625374682 0.5 L 180.20621625374682 3.5 L 187.20621625374682 0 L 180.20621625374682 -3.5 L 180.20621625374682 -0.5 L 112.27107687687341 -0.5 Z"/><text text-anchor="middle" pointer-events="none" font-size="8px" fill="#000000" x="102.60310812687341" y="3" font-family="sans-serif">trek</text></g><g class="relationship" transform="translate(-96.50998907313596 -231.50490600042065) rotate(498.7840990336172)"><path class="outline" fill="#A5ABB6" stroke="none" d="M 24.018736134675446,-6.953439040707552 L 24.277555179777966,-5.987513214418485 A 236.7378760743432 236.7378760743432 0 0 1 60.03543654391122,-12.67524005644259 L 59.92766169147056,-13.669415383626585 A 237.7378760743432 237.7378760743432 0 0 0 24.018736134675446,-6.953439040707552 Z M 106.41369629194732,-14.136884782120205 L 106.32593631683723,-13.14074313216841 A 236.7378760743432 236.7378760743432 0 0 1 142.21107797398633,-7.173467521699325 L 141.4930527972556,-4.2606613411269265 L 149.12729659144372,-5.983543139422963 L 143.16844487629402,-11.057209095795857 L 142.45041969956327,-8.144402915223457 A 237.7378760743432 237.7378760743432 0 0 0 106.41369629194732,-14.136884782120205"/><text text-anchor="middle" pointer-events="none" font-size="8px" fill="#000000" x="83.16425296523985" y="-11.542166219005026" transform="rotate(180 83.16425296523985 -14.542166219005026)" font-family="sans-serif">twowheeler</text></g><g class="relationship" transform="translate(-226.9475439300486 -117.25150078560367) rotate(380.2606382369554)"><path class="outline" fill="#A5ABB6" stroke="none" d="M 21.40063509461097,12.933012701892217 L 21.90063509461097,12.06698729810778 A 88.75277497423015 88.75277497423015 0 0 0 41.32194631185044,20.377003573380236 L 41.04077114547258,21.336660035773093 A 89.75277497423015 89.75277497423015 0 0 1 21.40063509461097,12.933012701892217 Z M 87.22593581241493,22.47855780630144 L 86.99252895411217,21.50617864234468 A 88.75277497423015 88.75277497423015 0 0 0 106.80077876925407,14.166087419948408 L 105.43100448785404,11.497057930037318 L 113.25680995927993,11.414785678333534 L 108.62714447778743,17.724793406496527 L 107.2573701963874,15.055763916585438 A 89.75277497423015 89.75277497423015 0 0 1 87.22593581241493,22.47855780630144"/><text text-anchor="middle" pointer-events="none" font-size="8px" fill="#000000" x="64.07098068445548" y="27.430337188425028" font-family="sans-serif">twowheeler</text></g><g class="relationship" transform="translate(-226.9475439300486 -117.25150078560367) rotate(380.2606382369554)"><path class="outline" fill="#A5ABB6" stroke="none" d="M 25 0.5 L 53.243501812602844 0.5 L 53.243501812602844 -0.5 L 25 -0.5 Z M 75.25522056260284 0.5 L 103.49872237520569 0.5 L 103.49872237520569 3.5 L 110.49872237520569 0 L 103.49872237520569 -3.5 L 103.49872237520569 -0.5 L 75.25522056260284 -0.5 Z"/><text text-anchor="middle" pointer-events="none" font-size="8px" fill="#000000" x="64.24936118760284" y="3" font-family="sans-serif">road</text></g><g class="relationship" transform="translate(-226.9475439300486 -117.25150078560367) rotate(380.2606382369554)"><path class="outline" fill="#A5ABB6" stroke="none" d="M 21.40063509461097,-12.933012701892217 L 21.90063509461097,-12.06698729810778 A 88.75277497423015 88.75277497423015 0 0 1 54.504109023789496,-23.17331007376849 L 54.37146062421715,-24.164473229909234 A 89.75277497423015 89.75277497423015 0 0 0 21.40063509461097,-12.933012701892217 Z M 73.77178808183216,-24.64413354575143 L 73.68828352721245,-23.64762615021553 A 88.75277497423015 88.75277497423015 0 0 1 106.80077876925407,-14.166087419948408 L 105.43100448785404,-11.497057930037318 L 113.25680995927993,-11.414785678333534 L 108.62714447778743,-17.724793406496527 L 107.2573701963874,-15.055763916585438 A 89.75277497423015 89.75277497423015 0 0 0 73.77178808183216,-24.64413354575143"/><text text-anchor="middle" pointer-events="none" font-size="8px" fill="#000000" x="64.07098068445549" y="-21.430337188425028" font-family="sans-serif">trek</text></g><g class="relationship" transform="translate(-96.50998907313596 -231.50490600042065) rotate(498.7840990336172)"><path class="outline" fill="#A5ABB6" stroke="none" d="M 24.018736134675446,6.953439040707552 L 24.277555179777966,5.987513214418485 A 236.7378760743432 236.7378760743432 0 0 0 73.52682237218022,13.748662611715133 L 73.47603622831457,14.747372162881675 A 237.7378760743432 237.7378760743432 0 0 1 24.018736134675446,6.953439040707552 Z M 92.84638370953103,14.942162808362184 L 92.81569210234971,13.942633906704685 A 236.7378760743432 236.7378760743432 0 0 0 142.21107797398633,7.173467521699325 L 141.4930527972556,4.2606613411269265 L 149.12729659144372,5.983543139422963 L 143.16844487629402,11.057209095795857 L 142.45041969956327,8.144402915223457 A 237.7378760743432 237.7378760743432 0 0 1 92.84638370953103,14.942162808362184"/><text text-anchor="middle" pointer-events="none" font-size="8px" fill="#000000" x="83.16425296523997" y="17.542166219005026" transform="rotate(180 83.16425296523997 14.542166219005026)" font-family="sans-serif">trek</text></g><g class="relationship" transform="translate(-226.9475439300486 -117.25150078560367) rotate(434.51771289757306)"><path class="outline" fill="#A5ABB6" stroke="none" d="M 25 0.5 L 68.8825227768241 0.5 L 68.8825227768241 -0.5 L 25 -0.5 Z M 88.2184602768241 0.5 L 132.1009830536482 0.5 L 132.1009830536482 3.5 L 139.1009830536482 0 L 132.1009830536482 -3.5 L 132.1009830536482 -0.5 L 88.2184602768241 -0.5 Z"/><text text-anchor="middle" pointer-events="none" font-size="8px" fill="#000000" x="78.5504915268241" y="3" font-family="sans-serif">trek</text></g><g class="relationship" transform="translate(-183.1423522706986 40.89475374753838) rotate(372.46759774348374)"><path class="outline" fill="#A5ABB6" stroke="none" d="M 25 0.5 L 67.83907463675719 0.5 L 67.83907463675719 -0.5 L 25 -0.5 Z M 87.17501213675719 0.5 L 130.01408677351438 0.5 L 130.01408677351438 3.5 L 137.01408677351438 0 L 130.01408677351438 -3.5 L 130.01408677351438 -0.5 L 87.17501213675719 -0.5 Z"/><text text-anchor="middle" pointer-events="none" font-size="8px" fill="#000000" x="77.50704338675719" y="3" font-family="sans-serif">trek</text></g></g><g class="layer nodes"><g class="node" aria-label="graph-node1" transform="translate(11.591357824944522,-16.68522542008523)"><circle class="outline" cx="0" cy="0" r="25" fill="#D9C8AE" stroke="#c0a378" stroke-width="2px"/><text class="caption" text-anchor="middle" pointer-events="none" x="0" y="5" font-size="10px" fill="#2A2C34" font-family="sans-serif"> Darjeeling</text></g><g class="node" aria-label="graph-node3" transform="translate(-24.94884066360851,75.87156318569753)"><circle class="outline" cx="0" cy="0" r="25" fill="#57C7E3" stroke="#23b3d7" stroke-width="2px"/><text class="caption" text-anchor="middle" pointer-events="none" x="0" y="5" font-size="10px" fill="#2A2C34" font-family="sans-serif"> Sandakp…</text></g><g class="node" aria-label="graph-node6" transform="translate(127.59063415389105,57.710519448212395)"><circle class="outline" cx="0" cy="0" r="25" fill="#F16667" stroke="#eb2728" stroke-width="2px"/><text class="caption" text-anchor="middle" pointer-events="none" x="0" y="5" font-size="10px" fill="#FFFFFF" font-family="sans-serif"> Tumbling</text></g><g class="node" aria-label="graph-node7" transform="translate(277.1288170102831,25.27500127048691)"><circle class="outline" cx="0" cy="0" r="25" fill="#F16667" stroke="#eb2728" stroke-width="2px"/><text class="caption" text-anchor="middle" pointer-events="none" x="0" y="5" font-size="10px" fill="#FFFFFF" font-family="sans-serif"> Gairibus</text></g><g class="node" aria-label="graph-node2" transform="translate(142.32347738547733,-40.22717636319994)"><circle class="outline" cx="0" cy="0" r="25" fill="#F16667" stroke="#eb2728" stroke-width="2px"/><text class="caption" text-anchor="middle" pointer-events="none" x="0" y="5" font-size="10px" fill="#FFFFFF" font-family="sans-serif"> BhikeBh…</text></g><g class="node" aria-label="graph-node0" transform="translate(63.18388623794591,-144.4855463879553)"><circle class="outline" cx="0" cy="0" r="25" fill="#D9C8AE" stroke="#c0a378" stroke-width="2px"/><text class="caption" text-anchor="middle" pointer-events="none" x="0" y="5" font-size="10px" fill="#2A2C34" font-family="sans-serif"> Rimbik</text></g><g class="node" aria-label="graph-node4" transform="translate(-96.50998907313596,-231.50490600042065)"><circle class="outline" cx="0" cy="0" r="25" fill="#F16667" stroke="#eb2728" stroke-width="2px"/><text class="caption" text-anchor="middle" pointer-events="none" x="0" y="5" font-size="10px" fill="#FFFFFF" font-family="sans-serif"> Sirikhola</text></g><g class="node" aria-label="graph-node5" transform="translate(-99.83252649577862,-70.32947921791857)"><circle class="outline" cx="0" cy="0" r="25" fill="#F16667" stroke="#eb2728" stroke-width="2px"/><text class="caption" text-anchor="middle" pointer-events="none" x="0" y="5" font-size="10px" fill="#FFFFFF" font-family="sans-serif"> Gurdum</text></g><g class="node" aria-label="graph-node8" transform="translate(-226.9475439300486,-117.25150078560367)"><circle class="outline" cx="0" cy="0" r="25" fill="#F16667" stroke="#eb2728" stroke-width="2px"/><text class="caption" text-anchor="middle" pointer-events="none" x="0" y="5" font-size="10px" fill="#FFFFFF" font-family="sans-serif"> Rammam</text></g><g class="node" aria-label="graph-node9" transform="translate(-183.1423522706986,40.89475374753838)"><circle class="outline" cx="0" cy="0" r="25" fill="#57C7E3" stroke="#23b3d7" stroke-width="2px"/><text class="caption" text-anchor="middle" pointer-events="none" x="0" y="5" font-size="10px" fill="#2A2C34" font-family="sans-serif"> Sabargr…</text></g></g></svg>