<svg xmlns="http://www.w3.org/2000/svg" width="479.1011962890625" height="173.3975830078125" viewBox="-364.0693054199219 -98.07585906982422 479.1011962890625 173.3975830078125"><title>Neo4j Graph Visualization</title><desc>Created using Neo4j (http://www.neo4j.com/)</desc><g class="layer relationships"><g class="relationship" transform="translate(86.03187616429494 46.321725262296816) rotate(218.28314106810961)"><path class="outline" fill="#A5ABB6" stroke="none" d="M 21.40063509461097,12.933012701892217 L 21.90063509461097,12.06698729810778 A 96.0372078045527 96.0372078045527 0 0 0 58.07153161980792,24.19993056161863 L 57.94816581557514,25.192291825648013 A 97.0372078045527 97.0372078045527 0 0 1 21.40063509461097,12.933012701892217 Z M 77.34640526180208,25.64888063471186 L 77.26986589682082,24.651814074442058 A 96.0372078045527 96.0372078045527 0 0 0 113.97155125409732,14.234119530659706 L 112.59544984722817,11.568346674992378 L 120.42103815179928,11.467511723909576 L 115.80635312992285,17.788483338216146 L 114.4302517230537,15.122710482548817 A 97.0372078045527 97.0372078045527 0 0 1 77.34640526180208,25.64888063471186"/><text text-anchor="middle" pointer-events="none" font-size="8px" fill="#000000" x="67.64760996948974" y="28.406802742194444" transform="rotate(180 67.64760996948974 25.406802742194444)" font-family="sans-serif">trek</text></g><g class="relationship" transform="translate(-25.93134574726133 -42.048019501065454) rotate(537.4100551974562)"><path class="outline" fill="#A5ABB6" stroke="none" d="M 25 0.5 L 62.97234939379078 0.5 L 62.97234939379078 -0.5 L 25 -0.5 Z M 82.30828689379078 0.5 L 120.28063628758156 0.5 L 120.28063628758156 3.5 L 127.28063628758156 0 L 120.28063628758156 -3.5 L 120.28063628758156 -0.5 L 82.30828689379078 -0.5 Z"/><text text-anchor="middle" pointer-events="none" font-size="8px" fill="#000000" x="72.64031814379078" y="3" transform="rotate(180 72.64031814379078 0)" font-family="sans-serif">trek</text></g><g class="relationship" transform="translate(-178.05642971665765 -35.16681208849438) rotate(192.18663540248724)"><path class="outline" fill="#A5ABB6" stroke="none" d="M 25 0.5 L 67.148382381233 0.5 L 67.148382381233 -0.5 L 25 -0.5 Z M 86.484319881233 0.5 L 128.632702262466 0.5 L 128.632702262466 3.5 L 135.632702262466 0 L 128.632702262466 -3.5 L 128.632702262466 -0.5 L 86.484319881233 -0.5 Z"/><text text-anchor="middle" pointer-events="none" font-size="8px" fill="#000000" x="76.816351131233" y="3" transform="rotate(180 76.816351131233 0)" font-family="sans-serif">trek</text></g><g class="relationship" transform="translate(86.03187616429494 46.321725262296816) rotate(218.28314106810961)"><path class="outline" fill="#A5ABB6" stroke="none" d="M 25 0.5 L 56.812046599513494 0.5 L 56.812046599513494 -0.5 L 25 -0.5 Z M 78.8237653495135 0.5 L 110.63581194902699 0.5 L 110.63581194902699 3.5 L 117.63581194902699 0 L 110.63581194902699 -3.5 L 110.63581194902699 -0.5 L 78.8237653495135 -0.5 Z"/><text text-anchor="middle" pointer-events="none" font-size="8px" fill="#000000" x="67.8179059745135" y="3" transform="rotate(180 67.8179059745135 0)" font-family="sans-serif">road</text></g><g class="relationship" transform="translate(86.03187616429494 46.321725262296816) rotate(218.28314106810961)"><path class="outline" fill="#A5ABB6" stroke="none" d="M 21.40063509461097,-12.933012701892217 L 21.90063509461097,-12.06698729810778 A 96.0372078045527 96.0372078045527 0 0 1 37.59918194864567,-19.3317124840693 L 37.26264512310596,-20.27338278999153 A 97.0372078045527 97.0372078045527 0 0 0 21.40063509461097,-12.933012701892217 Z M 98.24044905658651,-21.708656488643214 L 97.94858977188056,-20.752195220252844 A 96.0372078045527 96.0372078045527 0 0 1 113.97155125409732,-14.234119530659706 L 112.59544984722817,-11.568346674992378 L 120.42103815179928,-11.467511723909576 L 115.80635312992285,-17.788483338216146 L 114.4302517230537,-15.122710482548817 A 97.0372078045527 97.0372078045527 0 0 0 98.24044905658651,-21.708656488643214"/><text text-anchor="middle" pointer-events="none" font-size="8px" fill="#000000" x="67.64760996948972" y="-22.406802742194444" transform="rotate(180 67.64760996948972 -25.406802742194444)" font-family="sans-serif">PublicTransport</text></g></g><g class="layer nodes"><g class="node" aria-label="graph-node1" transform="translate(86.03187616429494,46.321725262296816)"><circle class="outline" cx="0" cy="0" r="25" fill="#D9C8AE" stroke="#c0a378" stroke-width="2px"/><text class="caption" text-anchor="middle" pointer-events="none" x="0" y="5" font-size="10px" fill="#2A2C34" font-family="sans-serif"> Darjeeling</text></g><g class="node" aria-label="graph-node3" transform="translate(-335.0692998185743,-69.07586189088065)"><circle class="outline" cx="0" cy="0" r="25" fill="#57C7E3" stroke="#23b3d7" stroke-width="2px"/><text class="caption" text-anchor="middle" pointer-events="none" x="0" y="5" font-size="10px" fill="#2A2C34" font-family="sans-serif"> Sandakp…</text></g><g class="node" aria-label="graph-node0" transform="translate(-25.93134574726133,-42.048019501065454)"><circle class="outline" cx="0" cy="0" r="25" fill="#D9C8AE" stroke="#c0a378" stroke-width="2px"/><text class="caption" text-anchor="middle" pointer-events="none" x="0" y="5" font-size="10px" fill="#2A2C34" font-family="sans-serif"> Rimbik</text></g><g class="node" aria-label="graph-node2" transform="translate(-178.05642971665765,-35.16681208849438)"><circle class="outline" cx="0" cy="0" r="25" fill="#F16667" stroke="#eb2728" stroke-width="2px"/><text class="caption" text-anchor="middle" pointer-events="none" x="0" y="5" font-size="10px" fill="#FFFFFF" font-family="sans-serif"> BhikeBh…</text></g></g></svg>