<svg xmlns="http://www.w3.org/2000/svg" width="546.0765991210938" height="278.5362243652344" viewBox="-411.9308776855469 -163.21841430664062 546.0765991210938 278.5362243652344"><title>Neo4j Graph Visualization</title><desc>Created using Neo4j (http://www.neo4j.com/)</desc><g class="layer relationships"><g class="relationship" transform="translate(75.04255141332311 -53.288815146037905) rotate(437.83170697454545)"><path class="outline" fill="#A5ABB6" stroke="none" d="M 25 0.5 L 50.68499017211593 0.5 L 50.68499017211593 -0.5 L 25 -0.5 Z M 85.13030267211593 0.5 L 110.81529284423186 0.5 L 110.81529284423186 3.5 L 117.81529284423186 0 L 110.81529284423186 -3.5 L 110.81529284423186 -0.5 L 85.13030267211593 -0.5 Z"/><text text-anchor="middle" pointer-events="none" font-size="8px" fill="#000000" x="67.90764642211593" y="3" font-family="sans-serif">ORIGIN</text></g><g class="relationship" transform="translate(75.04255141332311 -53.288815146037905) rotate(535.7310091512379)"><path class="outline" fill="#A5ABB6" stroke="none" d="M 25 0.5 L 41.4077826742101 0.5 L 41.4077826742101 -0.5 L 25 -0.5 Z M 100.5952826742101 0.5 L 117.0030653484202 0.5 L 117.0030653484202 3.5 L 124.0030653484202 0 L 117.0030653484202 -3.5 L 117.0030653484202 -0.5 L 100.5952826742101 -0.5 Z"/><text text-anchor="middle" pointer-events="none" font-size="8px" fill="#000000" x="71.0015326742101" y="3" transform="rotate(180 71.0015326742101 0)" font-family="sans-serif">DESTINATION</text></g><g class="relationship" transform="translate(-226.28284899299902 -77.64868158782927) rotate(373.0675381512888)"><path class="outline" fill="#A5ABB6" stroke="none" d="M 25 0.5 L 57.67538902747776 0.5 L 57.67538902747776 -0.5 L 25 -0.5 Z M 92.12070152747776 0.5 L 124.79609055495553 0.5 L 124.79609055495553 3.5 L 131.79609055495553 0 L 124.79609055495553 -3.5 L 124.79609055495553 -0.5 L 92.12070152747776 -0.5 Z"/><text text-anchor="middle" pointer-events="none" font-size="8px" fill="#000000" x="74.89804527747776" y="3" font-family="sans-serif">ORIGIN</text></g><g class="relationship" transform="translate(-226.28284899299902 -77.64868158782927) rotate(199.85599017215793)"><path class="outline" fill="#A5ABB6" stroke="none" d="M 25 0.5 L 50.180999077410505 0.5 L 50.180999077410505 -0.5 L 25 -0.5 Z M 109.3684990774105 0.5 L 134.549498154821 0.5 L 134.549498154821 3.5 L 141.549498154821 0 L 134.549498154821 -3.5 L 134.549498154821 -0.5 L 109.3684990774105 -0.5 Z"/><text text-anchor="middle" pointer-events="none" font-size="8px" fill="#000000" x="79.7747490774105" y="3" transform="rotate(180 79.7747490774105 0)" font-family="sans-serif">DESTINATION</text></g></g><g class="layer nodes"><g class="node" aria-label="graph-node37" transform="translate(105.14571165792599,86.31780222388286)"><circle class="outline" cx="0" cy="0" r="25" fill="#8DCC93" stroke="#5db665" stroke-width="2px"/><text class="caption" text-anchor="middle" pointer-events="none" x="0" y="5" font-size="10px" fill="#2A2C34" font-family="sans-serif"> CMH</text></g><g class="node" aria-label="graph-node31" transform="translate(-382.93086301659,-134.2184176495042)"><circle class="outline" cx="0" cy="0" r="25" fill="#8DCC93" stroke="#5db665" stroke-width="2px"/><text class="caption" text-anchor="middle" pointer-events="none" x="0" y="5" font-size="10px" fill="#2A2C34" font-family="sans-serif"> MSN</text></g><g class="node" aria-label="graph-node573" transform="translate(75.04255141332311,-53.288815146037905)"><circle class="outline" cx="0" cy="0" r="25" fill="#ECB5C9" stroke="#da7298" stroke-width="2px"/><text class="caption" text-anchor="middle" pointer-events="none" x="0" y="5" font-size="10px" fill="#2A2C34" font-family="sans-serif"> 11/29/20…</text></g><g class="node" aria-label="graph-node17" transform="translate(-73.54711489129915,-42.197171863522016)"><circle class="outline" cx="0" cy="0" r="25" fill="#8DCC93" stroke="#5db665" stroke-width="2px"/><text class="caption" text-anchor="middle" pointer-events="none" x="0" y="5" font-size="10px" fill="#2A2C34" font-family="sans-serif"> ORD</text></g><g class="node" aria-label="graph-node133" transform="translate(-226.28284899299902,-77.64868158782927)"><circle class="outline" cx="0" cy="0" r="25" fill="#ECB5C9" stroke="#da7298" stroke-width="2px"/><text class="caption" text-anchor="middle" pointer-events="none" x="0" y="5" font-size="10px" fill="#2A2C34" font-family="sans-serif"> 11/30/20…</text></g></g></svg>