<svg xmlns="http://www.w3.org/2000/svg" width="497.7859191894531" height="176.77386474609375" viewBox="-383.0693054199219 -111.07585906982422 497.7859191894531 176.77386474609375"><title>Neo4j Graph Visualization</title><desc>Created using Neo4j (http://www.neo4j.com/)</desc><g class="layer relationships"><g class="relationship" transform="translate(85.71660990219048 36.69799785566583) rotate(204.67935529603892)"><path class="outline" fill="#A5ABB6" stroke="none" d="M 21.40063509461097,12.933012701892217 L 21.90063509461097,12.06698729810778 A 96.29740607614438 96.29740607614438 0 0 0 58.199108965821566,24.23647526011345 L 58.07605031191046,25.228874659396624 A 97.29740607614438 97.29740607614438 0 0 1 21.40063509461097,12.933012701892217 Z M 77.47421367193832,25.684679404731398 L 77.39790253643442,24.687595350803093 A 96.29740607614438 96.29740607614438 0 0 0 114.22790101047823,14.236430102933044 L 112.85158472083086,11.57076818309938 L 120.67716487169801,11.469302413728117 L 116.06298939667474,17.790645996044592 L 114.68667310702736,15.12498407621093 A 97.29740607614438 97.29740607614438 0 0 1 77.47421367193832,25.684679404731398"/><text text-anchor="middle" pointer-events="none" font-size="8px" fill="#000000" x="67.77548667573976" y="28.441682378789736" transform="rotate(180 67.77548667573976 25.441682378789736)" font-family="sans-serif">trek</text></g><g class="relationship" transform="translate(-44.122550962401604 -22.96467260187334) rotate(185.94199255949383)"><path class="outline" fill="#A5ABB6" stroke="none" d="M 25 0.5 L 63.53750061438264 0.5 L 63.53750061438264 -0.5 L 25 -0.5 Z M 82.87343811438264 0.5 L 121.41093872876527 0.5 L 121.41093872876527 3.5 L 128.41093872876527 0 L 121.41093872876527 -3.5 L 121.41093872876527 -0.5 L 82.87343811438264 -0.5 Z"/><text text-anchor="middle" pointer-events="none" font-size="8px" fill="#000000" x="73.20546936438264" y="3" transform="rotate(180 73.20546936438264 0)" font-family="sans-serif">trek</text></g><g class="relationship" transform="translate(-196.70924531000168 -38.8460084938265) rotate(195.3613011821957)"><path class="outline" fill="#A5ABB6" stroke="none" d="M 25 0.5 L 68.42707855630367 0.5 L 68.42707855630367 -0.5 L 25 -0.5 Z M 87.76301605630367 0.5 L 131.19009461260734 0.5 L 131.19009461260734 3.5 L 138.19009461260734 0 L 131.19009461260734 -3.5 L 131.19009461260734 -0.5 L 87.76301605630367 -0.5 Z"/><text text-anchor="middle" pointer-events="none" font-size="8px" fill="#000000" x="78.09504730630367" y="3" transform="rotate(180 78.09504730630367 0)" font-family="sans-serif">trek</text></g><g class="relationship" transform="translate(85.71660990219048 36.69799785566583) rotate(204.67935529603892)"><path class="outline" fill="#A5ABB6" stroke="none" d="M 25 0.5 L 56.93964772682261 0.5 L 56.93964772682261 -0.5 L 25 -0.5 Z M 78.95136647682261 0.5 L 110.89101420364523 0.5 L 110.89101420364523 3.5 L 117.89101420364523 0 L 110.89101420364523 -3.5 L 110.89101420364523 -0.5 L 78.95136647682261 -0.5 Z"/><text text-anchor="middle" pointer-events="none" font-size="8px" fill="#000000" x="67.94550710182261" y="3" transform="rotate(180 67.94550710182261 0)" font-family="sans-serif">road</text></g><g class="relationship" transform="translate(85.71660990219048 36.69799785566583) rotate(204.67935529603892)"><path class="outline" fill="#A5ABB6" stroke="none" d="M 21.40063509461097,-12.933012701892217 L 21.90063509461097,-12.06698729810778 A 96.29740607614438 96.29740607614438 0 0 1 37.72331218396676,-19.3805152810975 L 37.387622706275586,-20.32248798482486 A 97.29740607614438 97.29740607614438 0 0 0 21.40063509461097,-12.933012701892217 Z M 98.3702553244143,-21.75541608293709 L 98.07917955647896,-20.79871607911099 A 96.29740607614438 96.29740607614438 0 0 1 114.22790101047823,-14.236430102933044 L 112.85158472083086,-11.57076818309938 L 120.67716487169801,-11.469302413728117 L 116.06298939667474,-17.790645996044592 L 114.68667310702736,-15.12498407621093 A 97.29740607614438 97.29740607614438 0 0 0 98.3702553244143,-21.75541608293709"/><text text-anchor="middle" pointer-events="none" font-size="8px" fill="#000000" x="67.77548667573974" y="-22.441682378789736" transform="rotate(180 67.77548667573974 -25.441682378789736)" font-family="sans-serif">PublicTransport</text></g></g><g class="layer nodes"><g class="node" aria-label="graph-node1" transform="translate(85.71660990219048,36.69799785566583)"><circle class="outline" cx="0" cy="0" r="25" fill="#D9C8AE" stroke="#c0a378" stroke-width="2px"/><text class="caption" text-anchor="middle" pointer-events="none" x="0" y="5" font-size="10px" fill="#2A2C34" font-family="sans-serif"> Darjeeling</text></g><g class="node" aria-label="graph-node3" transform="translate(-354.0692998185743,-82.07586189088065)"><circle class="outline" cx="0" cy="0" r="25" fill="#57C7E3" stroke="#23b3d7" stroke-width="2px"/><text class="caption" text-anchor="middle" pointer-events="none" x="0" y="5" font-size="10px" fill="#2A2C34" font-family="sans-serif"> Sandakp…</text></g><g class="node" aria-label="graph-node0" transform="translate(-44.122550962401604,-22.96467260187334)"><circle class="outline" cx="0" cy="0" r="25" fill="#D9C8AE" stroke="#c0a378" stroke-width="2px"/><text class="caption" text-anchor="middle" pointer-events="none" x="0" y="5" font-size="10px" fill="#2A2C34" font-family="sans-serif"> Rimbik</text></g><g class="node" aria-label="graph-node2" transform="translate(-196.70924531000168,-38.8460084938265)"><circle class="outline" cx="0" cy="0" r="25" fill="#F16667" stroke="#eb2728" stroke-width="2px"/><text class="caption" text-anchor="middle" pointer-events="none" x="0" y="5" font-size="10px" fill="#FFFFFF" font-family="sans-serif"> BhikeBh…</text></g></g></svg>